<?xml version="1.0" standalone="no"?>
<!DOCTYPE svg PUBLIC "-//W3C//DTD SVG 20010904//EN"
 "http://www.w3.org/TR/2001/REC-SVG-20010904/DTD/svg10.dtd">
<svg version="1.0" xmlns="http://www.w3.org/2000/svg"
 width="595.000000pt" height="595.000000pt" viewBox="0 0 595.000000 595.000000"
 preserveAspectRatio="xMidYMid meet">
<metadata>
Created by potrace 1.11, written by Peter Selinger 2001-2013
</metadata>
<g transform="translate(0.000000,595.000000) scale(0.100000,-0.100000)"
fill="#000000" stroke="none">
<path d="M2839 5267 c-2 -3 -35 -7 -74 -11 -38 -3 -81 -8 -95 -11 -13 -2 -41
-7 -62 -10 -31 -5 -141 -32 -193 -48 -89 -28 -161 -54 -163 -59 -2 -5 -10 -8
-17 -8 -20 0 -158 -66 -234 -112 -34 -21 -65 -38 -67 -38 -6 0 -64 -41 -82
-57 -7 -7 -16 -13 -20 -13 -4 0 -19 -10 -34 -23 -14 -12 -38 -31 -53 -42 -15
-10 -47 -39 -72 -62 -24 -24 -46 -43 -48 -43 -4 0 -60 -58 -130 -135 -41 -45
-157 -203 -191 -260 -16 -27 -35 -59 -41 -70 -27 -45 -103 -205 -103 -218 0
-7 -4 -17 -9 -22 -12 -14 -55 -145 -80 -240 -21 -84 -26 -109 -37 -184 -4 -25
-9 -55 -11 -66 -3 -11 -7 -107 -9 -214 l-3 -194 -103 1 c-57 0 -123 -4 -148
-9 -25 -5 -51 -10 -57 -11 -7 -1 -13 -6 -13 -11 0 -6 -3 -8 -6 -4 -4 3 -19 0
-34 -8 -15 -8 -30 -11 -34 -8 -3 4 -6 1 -6 -5 0 -7 -5 -12 -10 -12 -15 0 -120
-71 -120 -81 0 -5 -6 -9 -12 -9 -7 0 -23 -13 -35 -28 -12 -15 -36 -42 -52 -61
-16 -19 -28 -38 -25 -43 3 -4 1 -8 -4 -8 -9 0 -62 -101 -67 -129 -2 -9 -4 -17
-5 -18 -2 -2 -4 -7 -5 -13 -1 -5 -3 -11 -5 -12 -14 -19 -26 -199 -16 -263 10
-66 22 -108 47 -157 5 -10 9 -23 9 -29 0 -14 68 -118 97 -147 13 -13 23 -27
23 -32 0 -6 4 -10 10 -10 5 0 23 -12 39 -27 16 -16 41 -36 55 -46 24 -17 39
-46 16 -32 -12 7 -210 -84 -210 -97 0 -4 -5 -8 -11 -8 -6 0 -25 -11 -43 -25
-18 -14 -36 -25 -39 -25 -9 0 -179 -172 -202 -205 -11 -15 -25 -34 -32 -40 -8
-9 -12 -86 -13 -269 l-1 -256 988 2 988 3 -1 25 c-1 14 -4 39 -7 55 -3 17 -9
44 -12 60 -3 17 -8 37 -11 45 -3 8 -8 26 -10 40 -3 14 -9 29 -15 35 -5 5 -9
15 -9 23 0 18 -62 146 -72 150 -5 2 -6 7 -3 12 3 4 -2 13 -10 20 -8 7 -15 19
-15 26 0 8 -4 14 -10 14 -5 0 -10 6 -10 13 0 7 -8 20 -18 29 -29 28 -41 46
-35 52 4 3 -1 6 -10 6 -10 0 -17 3 -17 8 0 12 -63 77 -71 75 -4 -2 -11 6 -14
17 -4 11 -11 20 -16 20 -9 0 -44 27 -81 63 -10 9 -20 16 -23 15 -2 -2 -13 5
-25 14 -11 10 -20 15 -20 12 0 -3 -12 3 -28 14 -26 17 -98 54 -114 58 -5 1
-11 3 -15 4 -5 1 -11 2 -15 1 -5 0 -8 4 -8 10 0 5 -4 8 -9 4 -5 -3 -12 -1 -16
5 -4 6 -12 8 -18 5 -7 -3 1 4 18 17 16 13 42 35 57 50 15 14 28 24 28 21 0 -2
12 10 27 29 50 60 47 59 79 21 16 -20 43 -51 59 -68 105 -114 99 -108 235
-226 49 -42 213 -154 223 -151 4 1 7 -3 7 -8 0 -6 6 -10 14 -10 8 0 16 -3 18
-7 4 -10 177 -95 238 -118 25 -9 55 -22 67 -27 l22 -11 -27 -21 c-58 -45 -131
-120 -125 -129 3 -6 1 -7 -5 -3 -5 3 -19 -9 -31 -27 -11 -18 -31 -46 -45 -62
-14 -17 -26 -36 -26 -43 0 -7 -6 -15 -14 -18 -8 -3 -12 -12 -9 -20 3 -8 1 -14
-5 -14 -5 0 -19 -24 -31 -53 -12 -28 -29 -64 -37 -79 -8 -16 -12 -28 -8 -28 3
0 2 -6 -4 -13 -6 -7 -13 -26 -16 -42 -2 -17 -5 -31 -6 -32 -2 -2 -4 -7 -5 -13
-1 -5 -3 -11 -4 -12 -4 -5 -13 -62 -14 -90 -1 -16 -5 -28 -9 -28 -3 0 -5 -8
-4 -17 3 -17 63 -18 1078 -21 l1075 -2 -4 42 c-2 24 -7 50 -10 58 -3 8 -8 26
-10 40 -3 20 -17 75 -28 110 -5 17 -18 47 -24 60 -7 13 104 15 981 12 l989 -2
-3 261 c-3 245 -4 262 -22 275 -11 8 -16 14 -10 14 5 0 1 5 -8 11 -10 5 -18
15 -18 21 0 9 -129 140 -175 177 -29 23 -113 78 -142 93 -15 8 -37 19 -48 25
-41 23 -115 53 -130 53 -23 0 -18 14 13 32 15 9 47 35 71 57 24 23 49 41 54
41 6 0 8 3 4 6 -3 4 10 27 29 52 34 45 94 161 94 185 1 7 7 29 14 49 8 21 9
35 4 32 -7 -4 -7 0 0 12 14 28 12 176 -3 234 -7 28 -14 54 -15 58 -5 32 -14
52 -21 52 -5 0 -9 9 -9 19 0 11 -5 23 -10 26 -6 4 -8 11 -5 16 4 5 2 9 -2 9
-5 0 -17 17 -28 38 -24 45 -149 171 -191 192 -16 8 -40 22 -54 31 -14 9 -43
22 -65 29 -22 7 -44 15 -50 19 -18 10 -39 13 -159 17 l-119 4 1 163 c0 89 -4
187 -8 217 -5 30 -11 73 -14 95 -8 55 -15 93 -28 140 -6 22 -11 45 -13 50 -14
62 -70 231 -84 254 -9 15 -47 3 -376 -114 -150 -53 -207 -73 -495 -173 -63
-22 -194 -68 -290 -102 -388 -137 -550 -193 -642 -225 l-97 -33 22 34 c38 58
146 225 201 311 29 44 144 223 257 397 112 173 220 340 239 371 39 62 248 386
292 453 16 24 26 47 24 51 -5 8 -115 63 -196 100 -39 17 -117 43 -275 91 -96
29 -272 52 -441 56 -99 3 -182 3 -185 1z m1733 -3226 c35 -36 75 -70 120 -103
17 -12 16 -14 -7 -25 -19 -8 -23 -8 -18 0 3 7 -4 3 -16 -8 -13 -11 -25 -19
-27 -18 -8 5 -114 -49 -114 -58 0 -5 -7 -6 -15 -3 -8 4 -15 1 -15 -5 0 -6 -5
-11 -10 -11 -6 0 -18 -6 -26 -12 -8 -7 -20 -18 -27 -23 -7 -6 -32 -26 -56 -45
-45 -35 -131 -118 -131 -127 0 -3 -11 -17 -25 -31 -14 -15 -25 -31 -24 -36 0
-5 -3 -12 -8 -15 -17 -11 -65 -81 -57 -81 5 0 3 -4 -4 -9 -7 -4 -14 -15 -16
-23 -1 -9 -8 -23 -15 -31 -7 -9 -14 -22 -15 -29 -1 -7 -6 -20 -11 -28 -5 -8
-10 -19 -11 -25 -1 -5 -12 -36 -23 -67 -11 -32 -18 -58 -16 -58 1 0 -3 -20
-11 -45 -7 -25 -11 -45 -8 -45 3 0 0 -9 -6 -20 -8 -14 -8 -20 0 -20 6 0 8 -4
5 -10 -11 -18 -20 -10 -40 35 -11 25 -23 45 -27 45 -5 0 -8 6 -8 13 0 14 -81
131 -111 159 -10 10 -21 23 -26 30 -4 7 -25 27 -45 45 -20 17 -34 34 -31 37 4
3 1 6 -5 6 -7 0 -21 8 -32 17 -22 19 -11 43 20 43 9 0 20 3 24 8 4 4 11 7 14
8 40 5 311 146 320 167 2 4 8 7 13 7 9 0 102 63 125 85 6 5 23 19 39 30 15 11
48 39 72 63 25 23 50 42 55 42 5 0 6 5 3 10 -3 6 -2 10 4 10 13 0 127 121 158
168 9 12 18 22 20 22 3 0 23 -18 45 -39z"/>
</g>
</svg>
